<svg width="80" height="80" viewBox="0 0 80 80" fill="none" xmlns="http://www.w3.org/2000/svg">
<path d="M13.75 56.25H16.25V58.75H13.75V56.25Z" fill="white"/>
<path d="M11.25 58.75H13.75V61.25H11.25V58.75Z" fill="white"/>
<path d="M16.25 58.75H18.75V61.25H16.25V58.75Z" fill="white"/>
<path d="M13.75 61.25H16.25V63.75H13.75V61.25Z" fill="white"/>
<path d="M67.5 5H70V7.5H67.5V5Z" fill="white"/>
<path d="M63.75 8.75H66.25V11.25H63.75V8.75Z" fill="white"/>
<path d="M71.25 8.75H73.75V11.25H71.25V8.75Z" fill="white"/>
<path d="M67.5 12.5H70V15H67.5V12.5Z" fill="white"/>
<path d="M23.9361 22.7031C24.4161 23.4253 25.1005 23.9881 25.9017 24.3196C26.703 24.6512 27.5849 24.7364 28.4349 24.5646L30.8992 24.0719L29.8992 31.073C29.8524 31.4011 29.9378 31.7344 30.1367 31.9996C30.3355 32.2648 30.6316 32.4401 30.9597 32.4871L32.1831 32.6622C32.6647 32.7311 33.1506 32.7927 33.6363 32.8478V35.7324L26.5027 42.8658C26.3626 43.0059 26.2579 43.1772 26.197 43.3657C26.1362 43.5541 26.121 43.7544 26.1527 43.9499C26.1844 44.1454 26.2622 44.3305 26.3795 44.4901C26.4968 44.6497 26.6504 44.7791 26.8275 44.8677L27.7761 45.342L26.9821 46.1361C26.298 46.818 25.8134 47.674 25.5806 48.6114C25.3479 49.5488 25.376 50.5321 25.6617 51.4547L29.7203 64.648L29.2977 65.0699C28.2938 66.0738 27.5892 67.3374 27.2629 68.7192C26.9365 70.101 27.0013 71.5463 27.45 72.8933C27.5046 73.0575 27.5926 73.2085 27.7086 73.3369C27.8245 73.4653 27.9659 73.5682 28.1236 73.6391C28.2814 73.7101 28.4522 73.7475 28.6252 73.749C28.7982 73.7505 28.9696 73.7161 29.1286 73.648L37.8786 69.898C38.1582 69.7782 38.3845 69.5605 38.5151 69.2858C38.6457 69.0112 38.6717 68.6983 38.5882 68.4058L36.1975 60.0355C36.1919 60.016 36.186 59.9966 36.1796 59.9775L33.7902 51.613L36.6664 48.7367C37.8218 49.042 38.9877 49.3003 40.1641 49.5114L38.1516 54.2094C37.8745 54.8501 37.7273 55.5395 37.7186 56.2375C37.7099 56.9355 37.8397 57.6283 38.1006 58.2758L42.2314 68.6031L41.8324 69.2024C41.1829 70.1696 40.7646 71.2732 40.6098 72.4279C40.455 73.5826 40.5677 74.7574 40.9394 75.8616L41.2003 76.6444C41.255 76.8084 41.3431 76.9593 41.4591 77.0876C41.5751 77.2158 41.7164 77.3186 41.8741 77.3894C42.0319 77.4602 42.2026 77.4975 42.3755 77.499C42.5484 77.5005 42.7197 77.4661 42.8786 77.398L51.6286 73.648C51.9313 73.5182 52.1706 73.2743 52.2944 72.9691C52.4183 72.664 52.4167 72.3223 52.29 72.0183L46.2302 57.4749L48.9566 50.2041C50.1403 50.1801 51.3251 50.1097 52.511 49.9928C52.7206 49.9719 52.9215 49.8983 53.0951 49.779C53.2686 49.6596 53.4092 49.4983 53.5037 49.31C53.5983 49.1218 53.6437 48.9127 53.6358 48.7022C53.6279 48.4917 53.567 48.2866 53.4586 48.106L46.1366 35.9028V32.7031C46.6331 32.6352 47.121 32.5625 47.5928 32.4831C47.758 32.4555 47.9159 32.3949 48.0573 32.3051C48.1986 32.2152 48.3204 32.0979 48.4155 31.96C48.5106 31.8221 48.577 31.6666 48.6108 31.5026C48.6446 31.3385 48.6451 31.1694 48.6122 31.0052L48.1725 28.8031L53.8131 34.4449C54.1012 34.7338 54.4647 34.9359 54.8622 35.028L62.1011 36.7233C62.126 36.7292 62.151 36.7321 62.1758 36.7364C62.1935 36.7394 62.2105 36.7442 62.2285 36.7466L66.8161 37.3319C66.8786 37.34 66.9424 37.3488 67.0052 37.3574C67.3084 37.4051 67.6145 37.4315 67.9214 37.4363C68.7392 37.4363 69.7339 37.1922 70.623 36.026C70.6392 36.0051 70.6549 35.9835 70.6699 35.9611C70.9551 35.5333 71.1412 35.0472 71.2147 34.5383C71.2882 34.0294 71.2472 33.5105 71.0946 33.0195C70.9421 32.5284 70.6819 32.0776 70.3331 31.6999C69.9842 31.3222 69.5554 31.0271 69.078 30.8361C68.9555 30.7872 68.826 30.758 68.6944 30.7494L65.1674 30.5216L58.1361 27.7033L51.5375 20.0046C52.062 19.2272 52.3841 18.3312 52.4744 17.3978C52.5648 16.4644 52.4207 15.5232 52.055 14.6597C51.7623 13.9632 51.3312 13.3334 50.7878 12.8085L50.6881 12.7117C49.548 11.5819 48.7075 10.1857 48.2428 8.64924C47.6207 6.65102 46.303 4.94194 44.5288 3.83196C42.7545 2.72199 40.6412 2.28462 38.5722 2.5992C36.5031 2.91377 34.6153 3.95945 33.2511 5.54658C31.887 7.13371 31.1368 9.15719 31.1366 11.25V13.2266C31.1342 14.5323 31.4093 15.8235 31.9436 17.0149L29.2397 17.4013L23.1247 8.2294C22.8583 7.82458 22.5144 7.47644 22.1129 7.20501C21.7114 6.93358 21.2602 6.74421 20.7852 6.6478C20.3103 6.55139 19.8209 6.54983 19.3454 6.64323C18.8698 6.73662 18.4174 6.92312 18.0142 7.192C17.611 7.46087 17.2649 7.80682 16.9959 8.20993C16.7269 8.61305 16.5402 9.06538 16.4466 9.5409C16.353 10.0164 16.3544 10.5058 16.4507 10.9807C16.5469 11.4557 16.7361 11.907 17.0074 12.3086L23.9361 22.7031ZM34.1525 61.978L35.8824 68.0344L29.5652 70.7417C29.5608 70.6543 29.5586 70.5669 29.5585 70.4794C29.5565 69.803 29.6888 69.133 29.9475 68.5081C30.2062 67.8832 30.5863 67.3158 31.0658 66.8388L32.0205 65.8841C32.1811 65.7234 32.2949 65.5221 32.3496 65.3016C32.4044 65.0812 32.3981 64.8499 32.3313 64.6328L31.7602 62.7763L34.1525 61.978ZM31.5025 50.3658C31.3449 50.5234 31.2323 50.7203 31.1764 50.9361C31.1205 51.1519 31.1233 51.3787 31.1846 51.593L33.4638 59.5722L31.025 60.3856L28.0513 50.7188C27.9001 50.2305 27.8853 49.7101 28.0086 49.214C28.1319 48.7179 28.3885 48.265 28.7506 47.9042L30.1789 46.476C31.4151 47.0166 32.6703 47.4994 33.9446 47.9246L31.5025 50.3658ZM46.9244 65.6388L49.5075 71.8383L43.1689 74.5547C43.0174 73.8778 43.0052 73.1772 43.1332 72.4955C43.2613 71.8138 43.5268 71.1653 43.9136 70.5895L44.6777 69.4428C44.7901 69.2741 44.8597 69.0806 44.8807 68.8789C44.9016 68.6773 44.8732 68.4735 44.7978 68.2853L44.1139 66.5756L46.9244 65.6388ZM43.7169 57.0606C43.6053 57.3582 43.6112 57.687 43.7335 57.9803L45.9603 63.3241L43.1839 64.2495L40.4225 57.3483C40.1477 56.655 40.1576 55.8813 40.45 55.1953L42.7203 49.8956C43.9066 50.0385 45.0986 50.1335 46.2964 50.1808L43.7169 57.0606ZM50.2747 47.6575C43.0999 48.0357 35.9476 46.5722 29.498 43.4063L35.4042 37.5H44.1788L50.2747 47.6575ZM36.1366 35V33.0672C37.1905 33.1333 38.2519 33.1688 39.3069 33.1688C40.7444 33.1688 42.1942 33.1063 43.6366 32.9822V35H36.1366ZM65.5272 33.0505L68.2942 33.2292C68.4013 33.295 68.4944 33.3812 68.5682 33.4829C68.642 33.5846 68.695 33.6999 68.7242 33.8221C68.7534 33.9443 68.7583 34.0711 68.7385 34.1952C68.7187 34.3193 68.6747 34.4383 68.6089 34.5453C68.2496 35.0052 68.0821 34.9828 67.3475 34.8808C67.2769 34.8711 67.2069 34.8614 67.1346 34.8522L64.5464 34.5219L65.5272 33.0505ZM33.6366 11.25C33.6371 9.75538 34.1732 8.31041 35.1476 7.17707C36.1221 6.04373 37.4703 5.29705 38.948 5.0724C40.4256 4.84774 41.9349 5.15999 43.2021 5.95252C44.4693 6.74506 45.4106 7.96542 45.8553 9.39237C46.4445 11.3279 47.5072 13.0858 48.9474 14.5069L49.0485 14.605C49.3498 14.8978 49.5893 15.248 49.7529 15.6349C49.9164 16.0219 50.0007 16.4377 50.0006 16.8578C49.9989 17.4597 49.8242 18.0485 49.4974 18.5539C49.4853 18.5499 49.4735 18.5447 49.4614 18.5406L43.9239 16.6952C44.5505 15.8411 44.8878 14.8093 44.8869 13.75V10C44.8869 9.6685 44.7552 9.35056 44.5208 9.11614C44.2864 8.88172 43.9684 8.75002 43.6369 8.75002H36.1369C35.8054 8.75002 35.4874 8.88172 35.253 9.11614C35.0186 9.35056 34.8869 9.6685 34.8869 10V13.75C34.886 14.7191 35.1684 15.6673 35.6994 16.478L34.5588 16.641C33.9518 15.6057 33.6333 14.4267 33.6366 13.2266V11.25ZM39.8866 16.25C39.2238 16.2492 38.5884 15.9856 38.1197 15.5169C37.651 15.0482 37.3874 14.4128 37.3866 13.75V11.25H42.3866V13.75C42.3858 14.4128 42.1223 15.0482 41.6536 15.5169C41.185 15.9855 40.5497 16.2492 39.8869 16.25H39.8866ZM42.3786 18.815C42.3442 19.3787 42.1197 19.9141 41.7419 20.3339C41.3641 20.7537 40.8552 21.033 40.2982 21.1264C39.7412 21.2198 39.169 21.1217 38.6749 20.8481C38.1809 20.5745 37.7941 20.1415 37.5777 19.6199C37.4643 19.3475 37.4008 19.0569 37.3902 18.7621L37.5621 18.7375C37.7946 18.7044 38.0131 18.6061 38.1922 18.4541C39.2879 18.8493 40.4872 18.8493 41.5828 18.4541C41.7027 18.5567 41.841 18.6355 41.9903 18.6864L42.3786 18.815ZM23.7463 13.6685L27.5964 19.4433C27.7273 19.6395 27.9109 19.7948 28.1262 19.891C28.3415 19.9873 28.5797 20.0207 28.8131 19.9874L34.9069 19.1169C35.0204 20.3588 35.594 21.5135 36.5151 22.3542C37.4363 23.195 38.6384 23.661 39.8855 23.661C41.045 23.6604 42.1682 23.257 43.0632 22.5198C43.9581 21.7827 44.5691 20.7574 44.7917 19.6196L48.6724 20.9131C48.9947 21.0191 49.2813 21.2123 49.5005 21.4713L56.4363 29.5635C56.5674 29.7164 56.7336 29.8354 56.9207 29.9103L62.9925 32.3438L61.8274 34.0916L55.5182 32.6139L47.0205 24.1161C46.8308 23.9265 46.5851 23.803 46.3197 23.7637C46.0544 23.7245 45.7835 23.7716 45.547 23.8982C45.3105 24.0248 45.121 24.2241 45.0065 24.4666C44.892 24.7092 44.8586 24.9822 44.9111 25.2452L45.9044 30.2121C45.5238 30.265 45.1366 30.3142 44.7453 30.3596C42.9401 30.5649 41.1247 30.6681 39.3078 30.6688C37.8713 30.6688 36.4219 30.6036 35.0003 30.4753C34.1867 30.4016 33.363 30.3055 32.5516 30.1896L33.6249 22.6767C33.6531 22.4788 33.6335 22.277 33.5677 22.0883C33.5018 21.8995 33.3917 21.7293 33.2465 21.5919C33.1012 21.4546 32.9252 21.354 32.7331 21.2987C32.541 21.2434 32.3384 21.235 32.1424 21.2742L27.9456 22.1133C27.5813 22.1872 27.2032 22.1508 26.8597 22.0089C26.5161 21.867 26.2226 21.6259 26.0166 21.3164L21.8608 15.0827L23.7463 13.6685ZM18.9694 9.84377C19.0361 9.66763 19.1446 9.51034 19.2856 9.38545C19.4266 9.26057 19.5959 9.17183 19.7788 9.1269C19.8725 9.10362 19.9687 9.09182 20.0653 9.09174C20.2594 9.09161 20.4504 9.13946 20.6215 9.23103C20.7926 9.3226 20.9383 9.45505 21.0458 9.61658L22.3583 11.5853L20.473 12.9994L19.0875 10.9219C18.9818 10.7653 18.9157 10.5853 18.8951 10.3974C18.8746 10.2096 18.9001 10.0196 18.9694 9.84377Z" fill="white"/>
<path d="M3.35498 32.4356C4.3895 32.7774 5.34597 33.3209 6.16903 34.0347C6.9921 34.7486 7.6654 35.6186 8.14999 36.5944L8.88233 38.0589C8.98616 38.2665 9.14574 38.4411 9.3432 38.5631C9.54065 38.6852 9.76818 38.7498 10.0003 38.7498C10.2324 38.7498 10.4599 38.6852 10.6574 38.5631C10.8549 38.4411 11.0144 38.2665 11.1183 38.0589L11.8506 36.5944C12.3352 35.6186 13.0085 34.7486 13.8316 34.0347C14.6546 33.3209 15.6111 32.7774 16.6456 32.4356C16.8944 32.3527 17.1109 32.1935 17.2642 31.9807C17.4176 31.7678 17.5001 31.5122 17.5001 31.2499C17.5001 30.9876 17.4176 30.7319 17.2642 30.5191C17.1109 30.3063 16.8944 30.1471 16.6456 30.0641C15.6112 29.7224 14.6547 29.179 13.8317 28.4653C13.0086 27.7516 12.3353 26.8818 11.8506 25.9061L11.1183 24.4416C11.0144 24.234 10.8549 24.0594 10.6574 23.9374C10.4599 23.8154 10.2324 23.7507 10.0003 23.7507C9.76818 23.7507 9.54065 23.8154 9.3432 23.9374C9.14574 24.0594 8.98616 24.234 8.88233 24.4416L8.14999 25.9061C7.66532 26.8818 6.99198 27.7516 6.16892 28.4653C5.34586 29.179 4.38944 29.7224 3.35498 30.0641C3.10615 30.1471 2.88973 30.3063 2.73637 30.5191C2.58301 30.7319 2.50049 30.9876 2.50049 31.2499C2.50049 31.5122 2.58301 31.7678 2.73637 31.9807C2.88973 32.1935 3.10615 32.3527 3.35498 32.4356ZM10.0003 27.7294C10.8417 29.1481 11.9997 30.3529 13.3839 31.2499C11.9997 32.1467 10.8416 33.3516 10.0003 34.7703C9.15894 33.3517 8.00091 32.1468 6.6167 31.2499C8.00095 30.353 9.15899 29.1481 10.0003 27.7294Z" fill="white"/>
<path d="M76.6456 53.8141C75.6112 53.4724 74.6547 52.929 73.8317 52.2153C73.0086 51.5016 72.3353 50.6318 71.8506 49.6561L71.1183 48.1916C71.0144 47.984 70.8549 47.8094 70.6574 47.6874C70.4599 47.5654 70.2324 47.5007 70.0003 47.5007C69.7682 47.5007 69.5407 47.5654 69.3432 47.6874C69.1457 47.8094 68.9862 47.984 68.8823 48.1916L68.15 49.6561C67.6654 50.6319 66.9921 51.5019 66.169 52.2158C65.346 52.9296 64.3895 53.4731 63.355 53.8149C63.1061 53.8979 62.8897 54.057 62.7364 54.2699C62.583 54.4827 62.5005 54.7383 62.5005 55.0006C62.5005 55.263 62.583 55.5186 62.7364 55.7314C62.8897 55.9443 63.1061 56.1034 63.355 56.1864C64.3895 56.5282 65.346 57.0717 66.169 57.7855C66.9921 58.4994 67.6654 59.3694 68.15 60.3452L68.8823 61.8097C68.9862 62.0173 69.1457 62.1919 69.3432 62.3139C69.5407 62.4359 69.7682 62.5006 70.0003 62.5006C70.2324 62.5006 70.4599 62.4359 70.6574 62.3139C70.8549 62.1919 71.0144 62.0173 71.1183 61.8097L71.8506 60.3452C72.3352 59.3694 73.0085 58.4994 73.8316 57.7855C74.6546 57.0717 75.6111 56.5282 76.6456 56.1864C76.8944 56.1034 77.1109 55.9443 77.2642 55.7314C77.4176 55.5186 77.5001 55.263 77.5001 55.0006C77.5001 54.7383 77.4176 54.4827 77.2642 54.2699C77.1109 54.057 76.8944 53.8979 76.6456 53.8149V53.8141ZM70.0003 58.5203C69.1589 57.1017 68.0009 55.8968 66.6167 54.9999C68.0009 54.103 69.159 52.8981 70.0003 51.4794C70.8417 52.8981 71.9997 54.1029 73.3839 54.9999C71.9997 55.8967 70.8416 57.1016 70.0003 58.5203Z" fill="white"/>
<path d="M21.8095 42.632C21.513 42.4837 21.1697 42.4593 20.8552 42.5641C20.5407 42.6689 20.2807 42.8944 20.1324 43.1909C19.6599 44.1414 19.4141 45.1885 19.4141 46.2499C19.4141 47.3114 19.6599 48.3585 20.1324 49.309C20.2051 49.4571 20.3063 49.5894 20.4303 49.6982C20.5543 49.807 20.6986 49.8902 20.8549 49.943C21.0112 49.9958 21.1764 50.0171 21.341 50.0057C21.5056 49.9943 21.6663 49.9504 21.8138 49.8767C21.9614 49.8029 22.0929 49.7006 22.2007 49.5758C22.3086 49.4509 22.3906 49.306 22.4422 49.1492C22.4937 48.9925 22.5137 48.8272 22.5011 48.6627C22.4884 48.4982 22.4433 48.3379 22.3684 48.1909C22.0687 47.5877 21.9127 46.9234 21.9127 46.2499C21.9127 45.5765 22.0687 44.9121 22.3684 44.309C22.5166 44.0125 22.541 43.6692 22.4362 43.3547C22.3314 43.0402 22.106 42.7803 21.8095 42.632Z" fill="white"/>
<path d="M17.3993 42.632C17.1028 42.4837 16.7595 42.4593 16.445 42.5641C16.1305 42.6689 15.8706 42.8944 15.7223 43.1909C15.2498 44.1414 15.0039 45.1885 15.0039 46.25C15.0039 47.3114 15.2498 48.3585 15.7223 49.309C15.8705 49.6055 16.1305 49.831 16.4451 49.9359C16.7596 50.0407 17.1029 50.0163 17.3994 49.868C17.6959 49.7197 17.9214 49.4597 18.0262 49.1452C18.131 48.8307 18.1066 48.4874 17.9584 48.1909C17.6586 47.5878 17.5026 46.9234 17.5026 46.25C17.5026 45.5765 17.6586 44.9121 17.9584 44.309C18.1066 44.0125 18.131 43.6692 18.0262 43.3547C17.9213 43.0402 17.6958 42.7802 17.3993 42.632Z" fill="white"/>
<path d="M61.8845 25.4758C62.0549 25.4761 62.2235 25.4414 62.38 25.3739C62.5365 25.3065 62.6774 25.2076 62.7942 25.0835C63.5205 24.3094 64.0577 23.3777 64.3637 22.3612C64.6696 21.3448 64.7359 20.2713 64.5574 19.2249C64.5009 18.8982 64.3169 18.6074 64.046 18.4164C63.775 18.2253 63.4393 18.1498 63.1126 18.2063C62.7859 18.2628 62.4951 18.4468 62.3041 18.7178C62.113 18.9887 62.0375 19.3245 62.094 19.6511C62.2072 20.315 62.1652 20.9962 61.9711 21.6411C61.777 22.286 61.4361 22.8772 60.9753 23.3683C60.8078 23.5459 60.6961 23.7686 60.6537 24.009C60.6114 24.2494 60.6403 24.4969 60.737 24.721C60.8337 24.9451 60.9939 25.136 61.1978 25.2701C61.4017 25.4043 61.6404 25.4758 61.8845 25.4758Z" fill="white"/>
<path d="M65.1979 24.6394C64.9705 24.8806 64.8482 25.2023 64.858 25.5337C64.8677 25.865 65.0087 26.179 65.2499 26.4064C65.4912 26.6338 65.8129 26.7561 66.1442 26.7464C66.4756 26.7366 66.7896 26.5956 67.017 26.3544C67.7433 25.5803 68.2804 24.6486 68.5863 23.6321C68.8922 22.6157 68.9584 21.5423 68.78 20.4959C68.7535 20.3328 68.695 20.1765 68.6077 20.0362C68.5205 19.8958 68.4063 19.7742 68.2717 19.6782C68.1372 19.5823 67.9849 19.514 67.8238 19.4773C67.6627 19.4406 67.4959 19.4362 67.333 19.4643C67.1702 19.4925 67.0145 19.5527 66.8751 19.6414C66.7357 19.7301 66.6152 19.8456 66.5207 19.9811C66.4262 20.1167 66.3595 20.2696 66.3245 20.4311C66.2894 20.5926 66.2868 20.7595 66.3167 20.922C66.4298 21.586 66.3877 22.2671 66.1936 22.912C65.9995 23.557 65.6587 24.1482 65.1979 24.6394Z" fill="white"/>
</svg>
