<svg width="80" height="80" viewBox="0 0 80 80" fill="none" xmlns="http://www.w3.org/2000/svg">
<path d="M71.9721 64.7371H69.8668V62.6851C69.8668 62.0961 69.3897 61.6185 68.8001 61.6185H68.3505L67.1396 57.0769C67.0681 56.8078 66.891 56.5961 66.6668 56.4563V24.9246C66.6668 24.8726 66.6625 24.8198 66.6553 24.7683L65.0553 13.959C64.9782 13.4361 64.5292 13.0486 64.0001 13.0486C63.471 13.0486 63.022 13.4361 62.9449 13.959L61.3449 24.7683C61.3377 24.8198 61.3334 24.8726 61.3334 24.9246V56.4331C61.0884 56.5704 60.8937 56.7912 60.8177 57.0769L60.2068 59.3686L56.0833 49.4147C56.0641 49.368 56.0254 49.3345 56.0001 49.2915V28.1246C56.0001 28.0726 55.9958 28.0198 55.9886 27.9683L54.3886 17.159C54.3116 16.6361 53.8625 16.2486 53.3334 16.2486C52.8044 16.2486 52.3553 16.6361 52.2782 17.159L50.6782 27.9683C50.671 28.0198 50.6668 28.0726 50.6668 28.1246V46.9601L42.1334 43.6497V40.2851C42.1334 39.6961 41.6564 39.2185 41.0668 39.2185C40.4772 39.2185 40.0001 39.6961 40.0001 40.2851V43.4886L30.4001 46.799V28.1246C30.4001 28.0726 30.3958 28.0198 30.3886 27.9683L28.7886 17.159C28.7116 16.6361 28.2625 16.2486 27.7334 16.2486C27.2044 16.2486 26.7553 16.6361 26.6782 17.159L25.0782 27.9683C25.071 28.0198 25.0668 28.0726 25.0668 28.1246V48.6379L24.5542 48.8147C24.2428 48.9219 23.999 49.1673 23.8929 49.4787L20.6873 58.8803L20.2065 57.0766C20.135 56.8075 19.958 56.5958 19.7337 56.4561V24.9246C19.7337 24.8726 19.7294 24.8198 19.7222 24.7683L18.1222 13.959C18.0452 13.4361 17.5961 13.0486 17.067 13.0486C16.538 13.0486 16.0889 13.4361 16.0118 13.959L14.4118 24.7683C14.4044 24.8198 14.4001 24.8723 14.4001 24.9246V56.4331C14.155 56.5704 13.9604 56.7912 13.8844 57.0769L12.6734 61.6185H11.2001C10.6105 61.6185 10.1334 62.0961 10.1334 62.6851V64.7371H8.02809C7.43849 64.7371 6.96143 65.2147 6.96143 65.8038C6.96143 66.3929 7.43849 66.8705 8.02809 66.8705H10.7974C10.9217 66.9214 11.0572 66.9518 11.1998 66.9518H68.7998C68.9428 66.9518 69.078 66.9214 69.2025 66.8705H71.9718C72.5614 66.8705 73.0385 66.3929 73.0385 65.8038C73.0385 65.2147 72.5614 64.7371 71.9721 64.7371ZM47.4668 58.4182C46.8772 58.4182 46.4001 58.8958 46.4001 59.4848V61.6182H45.3334V57.3515C45.3334 56.7624 44.8564 56.2849 44.2668 56.2849C43.6772 56.2849 43.2001 56.7624 43.2001 57.3515V61.6182H42.0377V53.1915C42.0377 52.6025 41.5606 52.1249 40.971 52.1249C40.3814 52.1249 39.9044 52.6025 39.9044 53.1915V61.6182H38.9334V57.3515C38.9334 56.7624 38.4564 56.2849 37.8668 56.2849C37.2772 56.2849 36.8001 56.7624 36.8001 57.3515V61.6182H35.7334V59.4848C35.7334 58.8958 35.2564 58.4182 34.6668 58.4182C34.0772 58.4182 33.6001 58.8958 33.6001 59.4848V61.6182H28.0366L40.8958 51.0155L54.0446 61.6182H48.5334V59.4848C48.5334 58.8958 48.0564 58.4182 47.4668 58.4182ZM41.5585 48.8089C41.1646 48.4918 40.6022 48.4936 40.2105 48.8161L24.6833 61.6182H24.5062L40.8958 45.787L57.5916 61.6182H57.4425L41.5585 48.8089ZM17.6001 32.8182H16.5334V31.7515H17.6001V32.8182ZM16.5334 34.9515H17.6001V56.2849H16.5334V34.9515ZM64.5334 32.8182H63.4668V31.7515H64.5334V32.8182ZM63.4668 34.9515H64.5334V56.2849H63.4668V34.9515ZM62.6678 58.4182H65.2897L66.1428 61.6182H61.8148L62.6678 58.4182ZM64.0001 21.4001L64.5334 25.0033V29.6185H63.4668V25.0033L64.0001 21.4001ZM57.6238 58.7086L45.5556 47.2654L54.2865 50.6526L57.6238 58.7086ZM52.8001 34.9515H53.8668V36.0182H52.8001V34.9515ZM53.3334 24.6001L53.8668 28.2033V32.8185H52.8001V28.2033L53.3334 24.6001ZM52.8001 38.1515H53.8668V48.2014L52.8001 47.7875V38.1515ZM27.2001 34.9515H28.2668V36.0182H27.2001V34.9515ZM27.7334 24.6001L28.2668 28.2033V32.8185H27.2001V28.2033L27.7334 24.6001ZM27.2001 38.1515H28.2668V47.5345L27.2001 47.9022V38.1515ZM25.7438 50.6611L36.6852 46.8883L22.2878 60.7955L25.7438 50.6611ZM17.0668 21.4001L17.6001 25.0033V29.6185H16.5334V25.0033L17.0668 21.4001ZM15.7345 58.4182H18.3564L19.2094 61.6182H14.8814L15.7345 58.4182ZM12.2668 63.7515H13.4929H20.5169H20.5982H21.8668H25.0668H57.0668H60.2668H60.4262H67.5316H67.7334V64.7369H12.2668V63.7515Z" fill="white"/>
</svg>
