<svg width="80" height="80" viewBox="0 0 80 80" fill="none" xmlns="http://www.w3.org/2000/svg">
<path d="M45.7626 64.6219C46.1975 64.6219 46.5845 64.3466 46.7268 63.9357L63.275 16.3393C63.4053 15.9656 63.3075 15.55 63.0243 15.2734C62.741 14.9967 62.3234 14.909 61.9524 15.0479L16.0961 32.2238C15.5801 32.4173 15.3108 32.9845 15.487 33.5072C17.8922 40.6296 21.8354 47.1355 27.0367 52.5629C32.1742 57.9032 38.458 62.006 45.4135 64.5614C45.5252 64.6013 45.6436 64.6219 45.7626 64.6219ZM54.5427 35.2367L52.216 41.9269C46.0106 38.0741 40.8 32.8143 37.0058 26.5723L43.7365 24.0515C46.7128 28.3371 50.3621 32.1141 54.5427 35.2367ZM45.7114 23.3127L52.1422 20.9036C53.78 22.9663 55.5781 24.896 57.5191 26.6754L55.2482 33.208C51.5963 30.4005 48.3819 27.0657 45.7114 23.3127ZM51.5298 43.9025L49.4897 49.7714C41.0514 45.2617 34.1178 38.0449 29.7863 29.278L35.0588 27.3031C39.1143 34.0957 44.7685 39.7944 51.5298 43.9025ZM58.2525 24.5662C56.7963 23.181 55.4284 21.7055 54.157 20.1495L60.6324 17.7237L58.2525 24.5662ZM28.5076 51.1446C23.7458 46.1753 20.0799 40.2618 17.7479 33.7865L27.8632 29.9975C32.4235 39.3269 39.8106 46.9899 48.8114 51.7204L45.1422 62.2746C38.8617 59.8036 33.1876 56.0074 28.5076 51.1446Z" fill="white"/>
<path d="M9.26217 58.1374C9.44836 58.4373 9.77685 58.6201 10.1299 58.6195C10.1672 58.6195 10.2044 58.6175 10.241 58.6135C10.6313 58.5709 10.9631 58.3083 11.0935 57.9379L12.5763 53.726L16.7809 52.5138C17.1479 52.4081 17.4252 52.1062 17.4997 51.7312C17.5742 51.3568 17.4332 50.9718 17.1346 50.7337L13.8032 48.0799L14.115 43.5448C14.143 43.1465 13.9362 42.7682 13.5857 42.5773C13.2346 42.3858 12.8051 42.4164 12.4852 42.6558L8.92172 45.309L4.91002 43.7876C4.54961 43.6506 4.14332 43.7284 3.85938 43.9877C3.57478 44.2477 3.46041 44.6447 3.56348 45.0157L4.73314 49.2243L1.91371 52.8011C1.67366 53.1056 1.62645 53.5206 1.79269 53.871C1.95893 54.2214 2.3087 54.4475 2.69704 54.4548L7.02592 54.5353L9.26217 58.1374ZM6.65753 50.0827C6.85901 49.8267 6.92684 49.4902 6.83973 49.177L6.07104 46.4128L8.72023 47.4169C9.04673 47.5406 9.41312 47.4894 9.6924 47.2806L11.924 45.6195L11.7272 48.4735C11.7046 48.8087 11.8475 49.1332 12.1102 49.342L14.3139 51.0988L11.5051 51.9094C11.1879 52.0005 10.9339 52.2398 10.8242 52.5517L9.87394 55.2494L8.46821 52.9859C8.28535 52.6914 7.96617 52.5098 7.61973 52.5032L4.79033 52.4506L6.65753 50.0827Z" fill="white"/>
<path d="M65.3455 68.5671C65.1732 68.2187 64.8182 67.9979 64.4292 67.9979H60.2067L57.9751 64.324C57.7716 63.9895 57.3952 63.8007 57.0049 63.8379C56.6152 63.8751 56.2808 64.1325 56.1444 64.4995L54.5785 68.7267L50.4477 69.9402C50.082 70.048 49.806 70.3498 49.7329 70.7242C49.6598 71.0979 49.8007 71.4816 50.0986 71.719L53.4301 74.3729L53.1182 78.9079C53.0909 79.3035 53.2944 79.6792 53.6409 79.8714C53.9873 80.0636 54.4142 80.0383 54.7354 79.8062L58.2982 77.2335L62.2308 78.7543C62.5872 78.8919 62.9909 78.8188 63.2768 78.5654C63.5627 78.3121 63.6831 77.9197 63.5887 77.5494L62.4901 73.2311L65.2417 69.6403C65.4778 69.3318 65.5177 68.9155 65.3455 68.5671ZM60.5657 72.3813C60.3756 72.63 60.3097 72.9518 60.3869 73.2544L61.1183 76.1343L58.517 75.1282C58.1945 75.0039 57.8308 75.0504 57.5502 75.2533L55.3046 76.8744L55.5041 73.9785C55.5267 73.6434 55.3837 73.3189 55.1211 73.1101L52.9081 71.3473L55.6451 70.5433C55.9543 70.4523 56.203 70.2208 56.3147 69.9183L57.3254 67.1913L58.7584 69.5499C58.9432 69.8551 59.2744 70.0413 59.6315 70.0413H62.3591L60.5657 72.3813Z" fill="white"/>
<path d="M22.5647 10.2684L18.3708 9.13925C17.9998 9.03951 17.6035 9.15654 17.3461 9.44247C17.0888 9.72841 17.0143 10.134 17.1526 10.4931L18.7073 14.5274L16.2948 18.1621C16.0794 18.4866 16.0674 18.9062 16.2642 19.2426C16.4611 19.5791 16.8321 19.7739 17.2211 19.7453L21.5533 19.4242L24.1839 22.8766C24.4213 23.1878 24.8163 23.3361 25.1999 23.2583C25.5836 23.1799 25.8895 22.8893 25.9859 22.5096L27.0778 18.2193L31.2125 16.6001C31.5729 16.4591 31.8223 16.126 31.8575 15.741C31.8921 15.3553 31.7066 14.9836 31.3774 14.7801L27.7421 12.5332L27.5872 8.18969C27.5732 7.7987 27.3371 7.45026 26.98 7.292C26.6223 7.13374 26.206 7.19358 25.9075 7.4456L22.5647 10.2684ZM26.2034 13.9821L28.5653 15.4424L25.8443 16.5083C25.5384 16.6287 25.3083 16.8887 25.2272 17.2072L24.5277 19.9575L22.842 17.7458C22.6492 17.4925 22.3486 17.3435 22.0301 17.3435C22.0048 17.3435 21.9789 17.3442 21.9543 17.3462L19.1495 17.5543L20.7002 15.2176C20.8837 14.9417 20.9216 14.5946 20.8026 14.2854L19.7812 11.6348L22.5494 12.3796C22.8733 12.4667 23.2184 12.3902 23.4744 12.1741L25.6202 10.3608L25.7193 13.1503C25.7319 13.4907 25.9135 13.8033 26.2034 13.9821Z" fill="white"/>
<path d="M69.4424 44.1033C69.4424 43.2275 69.4424 42.5952 70.0814 41.9322C70.7038 41.2859 71.259 41.2885 72.1188 41.2865C73.0797 41.2912 74.4023 41.2879 75.6285 40.0158C76.0201 39.6095 76.0082 38.9625 75.6019 38.5715C75.1956 38.1798 74.5486 38.1918 74.1576 38.5981C73.5345 39.2451 72.97 39.2471 72.1195 39.2438C71.158 39.2464 69.836 39.2431 68.6098 40.5152C67.4009 41.7706 67.4009 43.064 67.3996 44.1026C67.3996 44.9791 67.3996 45.6121 66.7599 46.2757C66.1369 46.9227 65.573 46.9227 64.7198 46.9241C63.7011 46.9241 62.4337 46.9254 61.2069 48.1994C59.9953 49.4569 59.9953 50.7509 59.9953 51.7902C59.9953 52.666 59.9953 53.299 59.355 53.9633C58.9633 54.3696 58.9753 55.0159 59.3816 55.4076C59.7878 55.7986 60.4348 55.7866 60.8258 55.3803C62.0374 54.1229 62.0374 52.8296 62.0381 51.7902C62.0381 50.9145 62.0381 50.2808 62.6777 49.6165C63.3028 48.9675 63.8674 48.9675 64.7205 48.9668C65.7386 48.9668 67.0053 48.9655 68.2315 47.6927C69.4424 46.4366 69.4424 45.1433 69.4424 44.1033Z" fill="white"/>
<path d="M45.1956 6.97206C45.1956 7.84848 45.1956 8.48219 44.5559 9.14581C43.9328 9.79282 43.3689 9.79348 42.5165 9.79415C41.4977 9.79415 40.2303 9.79482 39.0028 11.0695C38.6118 11.4758 38.6238 12.1222 39.0301 12.5138C39.4364 12.9048 40.0834 12.8929 40.4744 12.4866C41.0994 11.8376 41.6633 11.8369 42.5171 11.8369C43.5352 11.8369 44.8019 11.8356 46.0274 10.5628C47.2383 9.30607 47.2383 8.01206 47.2383 6.97273C47.2383 6.09698 47.2383 5.46394 47.8774 4.80164C48.4998 4.15463 49.0656 4.15596 49.9148 4.15596C50.881 4.15397 52.1989 4.15729 53.4244 2.88456C53.8101 2.47761 53.7955 1.83592 53.3919 1.44692C52.9876 1.05792 52.3459 1.06723 51.9536 1.46754C51.3305 2.11454 50.7659 2.11188 49.9161 2.11321C48.9506 2.11454 47.632 2.11188 46.4058 3.38461C45.1962 4.64005 45.1962 5.9334 45.1956 6.97206Z" fill="white"/>
<path d="M31.6191 67.1654C32.0107 66.7591 31.9981 66.1127 31.5918 65.7211C31.1862 65.3301 30.5392 65.3421 30.1475 65.7483C29.5251 66.3947 28.9612 66.3914 28.1101 66.394C27.1492 66.394 25.8266 66.3927 24.6004 67.6648C23.3909 68.9209 23.3902 70.2142 23.3902 71.2529C23.3902 72.1293 23.3902 72.7623 22.7505 73.4266C22.1268 74.073 21.5636 74.0743 20.7104 74.0743C19.6917 74.0743 18.4243 74.0756 17.1974 75.3503C16.8118 75.7573 16.8264 76.3996 17.23 76.7886C17.6343 77.1776 18.2767 77.1677 18.669 76.7667C19.2934 76.1177 19.8579 76.1177 20.7118 76.117C21.7298 76.117 22.9959 76.1157 24.2221 74.8436C25.433 73.5862 25.433 72.2929 25.433 71.2535C25.433 70.3778 25.433 69.7447 26.072 69.0824C26.6944 68.4354 27.255 68.4354 28.1094 68.4368C29.0763 68.4354 30.3922 68.4374 31.6191 67.1654Z" fill="white"/>
<path d="M69.1484 28.9537C69.1484 31.1494 70.9292 32.9301 73.1249 32.9301C75.3213 32.9301 77.102 31.15 77.102 28.9537C77.102 26.7573 75.3219 24.9766 73.1256 24.9766C70.9299 24.9792 69.1511 26.758 69.1484 28.9537ZM75.0593 28.9537C75.0593 30.0216 74.1935 30.8874 73.1249 30.8874C72.057 30.8874 71.1912 30.0216 71.1912 28.9537C71.1912 27.8851 72.057 27.0193 73.1256 27.0193C74.1928 27.0206 75.0579 27.8858 75.0593 28.9537Z" fill="white"/>
<path d="M73.8743 58.0276C71.2643 58.0276 69.1484 60.1428 69.1484 62.7534C69.1484 65.3634 71.2643 67.4793 73.8743 67.4793C76.4843 67.4793 78.6002 65.3634 78.6002 62.7534C78.5975 60.1442 76.4829 58.0302 73.8743 58.0276ZM73.8743 65.4359C72.3928 65.4359 71.1912 64.235 71.1912 62.7528C71.1912 61.2713 72.3928 60.0697 73.8743 60.0697C75.3565 60.0697 76.5574 61.2713 76.5574 62.7534C76.5554 64.2343 75.3552 65.4339 73.8743 65.4352V65.4359Z" fill="white"/>
<path d="M6.92113 24.1068C9.0111 24.1068 10.7047 22.4131 10.7047 20.3232C10.7047 18.2339 9.0111 16.5396 6.9218 16.5396C4.83183 16.5396 3.13818 18.2339 3.13818 20.3232C3.14018 22.4118 4.8325 24.1041 6.92113 24.1068ZM6.92113 18.5823C7.88266 18.5823 8.66199 19.3616 8.66199 20.3232C8.66199 21.2847 7.88266 22.064 6.92113 22.064C5.9596 22.064 5.18027 21.2847 5.18094 20.3232C5.1816 19.3623 5.96027 18.5836 6.92113 18.5823Z" fill="white"/>
<path d="M72.5311 6.76596C74.3996 6.76596 75.9144 5.25118 75.9144 3.38265C75.9144 1.51411 74.3996 0 72.5311 0C70.6625 0 69.1484 1.51544 69.1484 3.38398C69.1518 5.25051 70.6645 6.7633 72.5311 6.76596ZM72.5311 2.04275C73.2718 2.04275 73.8716 2.64255 73.8716 3.38331C73.8716 4.12341 73.2718 4.7232 72.5317 4.7232C71.7916 4.7232 71.1912 4.12341 71.1912 3.38331C71.1919 2.64321 71.7916 2.04408 72.5311 2.04275Z" fill="white"/>
<path d="M9.60656 71.8946C11.654 71.8946 13.3137 70.2349 13.313 68.1874C13.313 66.14 11.654 64.481 9.60656 64.481C7.55915 64.481 5.89941 66.1407 5.89941 68.1881C5.90207 70.2342 7.56048 71.8926 9.60656 71.8946ZM9.60656 66.5237C10.5255 66.5237 11.2703 67.2685 11.2703 68.1881C11.2703 69.1071 10.5255 69.8518 9.60656 69.8518C8.68759 69.8518 7.94217 69.1071 7.94217 68.1881C7.9435 67.2691 8.68759 66.525 9.60656 66.5237Z" fill="white"/>
</svg>
