<svg width="20" height="20" viewBox="0 0 20 20" fill="none" xmlns="http://www.w3.org/2000/svg">
<path d="M11.6666 1H8.33332C8.14934 1 8 1.14934 8 1.33332C8 1.5173 8.14934 1.66664 8.33332 1.66664H11.6666C11.8506 1.66664 12 1.5173 12 1.33332C12 1.14934 11.8506 1 11.6666 1Z" fill="white"/>
<path d="M13.9996 1H13.6663C13.4823 1 13.333 1.14934 13.333 1.33332C13.333 1.5173 13.4823 1.66664 13.6663 1.66664H13.9996C14.1836 1.66664 14.333 1.5173 14.333 1.33332C14.333 1.14934 14.1836 1 13.9996 1Z" fill="white"/>
<path d="M10.4138 17H9.58615C9.07916 17 8.6665 17.4127 8.6665 17.9196V18.0807C8.6665 18.5877 9.07916 19 9.58584 19H10.4135C10.9205 19 11.3331 18.5877 11.3331 18.0807V17.9196C11.3331 17.4127 10.9205 17 10.4138 17ZM10.6665 18.0807C10.6665 18.22 10.5532 18.3333 10.4138 18.3333H9.58615C9.4465 18.3333 9.33314 18.22 9.33314 18.0807V17.9196C9.33314 17.78 9.44647 17.6666 9.58615 17.6666H10.4135C10.5532 17.6666 10.6665 17.78 10.6665 17.9196V18.0807Z" fill="white"/>
<path d="M14.4622 0H5.5385C4.87416 0 4.3335 0.540664 4.3335 1.205V18.795C4.3335 19.4593 4.87416 20 5.5385 20H14.4618C15.1262 20 15.6668 19.4593 15.6668 18.7954V1.205C15.6669 0.540664 15.1262 0 14.4622 0ZM15.0002 18.795C15.0002 19.0917 14.7588 19.3333 14.4622 19.3333H5.5385C5.2415 19.3333 5.00018 19.0916 5.00018 18.7953V1.205C5.00018 0.90832 5.2415 0.66668 5.5385 0.66668H14.4618C14.7588 0.66668 15.0001 0.908359 15.0001 1.205V18.795H15.0002Z" fill="white"/>
<path d="M15.3335 2H4.66682C4.48283 2 4.3335 2.14934 4.3335 2.33332V16.3333C4.3335 16.5173 4.48283 16.6666 4.66682 16.6666H15.3335C15.5175 16.6666 15.6668 16.5173 15.6668 16.3333V2.33332C15.6668 2.14934 15.5175 2 15.3335 2ZM15.0001 16H5.00014V2.66668H15.0001V16Z" fill="white"/>
</svg>
