<svg width="80" height="80" viewBox="0 0 80 80" fill="none" xmlns="http://www.w3.org/2000/svg">
<g clip-path="url(#clip0_69_6)">
<path d="M21.4453 63.2789V68.7493C21.4453 70.7099 23.0403 72.305 25.0009 72.305H54.9988C56.9594 72.305 58.5544 70.7099 58.5544 68.7493V63.2789C58.5544 61.3208 56.9594 59.7275 54.9988 59.7275H25.0009C23.0403 59.7277 21.4453 61.3208 21.4453 63.2789ZM55.4294 63.2789V68.7493C55.4294 68.9827 55.2322 69.18 54.9988 69.18H25.0009C24.7634 69.18 24.5703 68.9869 24.5703 68.7493V63.2789C24.5703 63.0479 24.7675 62.8525 25.0009 62.8525H54.9988C55.2322 62.8527 55.4294 63.048 55.4294 63.2789Z" fill="white"/>
<path d="M75.8598 44.3353H75.075V37.6945C75.075 37.6912 75.075 37.6886 75.075 37.6853C75.075 37.6833 75.075 37.6811 75.075 37.6791C75.0745 37.5348 75.067 37.4567 75.0506 37.4259C75.0052 37.1639 74.8936 36.9098 74.7105 36.6912L71.0764 32.3523C72.2059 30.5448 72.1077 28.1394 70.6658 26.4181L69.2111 24.685C68.3487 23.652 67.1314 23.0169 65.7831 22.8967C64.4316 22.7763 63.118 23.1875 62.083 24.0545C62.0825 24.055 62.0819 24.0555 62.0813 24.0561C59.9452 25.8512 59.6669 29.0483 61.4586 31.1805L62.912 32.9175C63.7777 33.9508 64.9972 34.5855 66.3456 34.7042C66.498 34.7177 66.6495 34.7244 66.8005 34.7244C67.4523 34.7244 68.0886 34.5997 68.682 34.3605L71.9502 38.2625V44.3355H59.385C59.26 35.56 57.9395 31.2006 51.6247 28.1725L49.1172 25.6067C50.9645 23.7423 52.2611 21.4469 52.2611 19.0291V15.2241V12.4202C52.2609 5.65781 46.7597 0.15625 39.9977 0.15625C33.2356 0.15625 27.7347 5.65781 27.7347 12.4202V15.2239V19.0289C27.7347 21.4475 29.032 23.7434 30.8803 25.6081L28.3716 28.172C22.0563 31.2003 20.7358 35.5597 20.6108 44.3353H8.04562V38.2623L11.3137 34.3603C11.9073 34.5995 12.5439 34.7242 13.1961 34.7242C13.3491 34.7242 13.5028 34.7173 13.657 34.7036C15.0055 34.5834 16.223 33.9484 17.0828 32.9183L18.5391 31.183C19.4052 30.1523 19.8172 28.8419 19.6992 27.4928C19.5811 26.1419 18.9466 24.9209 17.9125 24.0545C16.8792 23.1889 15.5675 22.7777 14.2195 22.8962C12.8711 23.015 11.6517 23.6495 10.7869 24.6819L9.32703 26.4214C7.89219 28.1405 7.79484 30.5434 8.92062 32.3506L5.285 36.6914C5.06438 36.9548 4.94703 37.2698 4.92547 37.5883C4.92313 37.6123 4.92156 37.6392 4.92094 37.6692C4.92078 37.6755 4.92047 37.6817 4.92047 37.688C4.92047 37.6903 4.92031 37.6922 4.92031 37.6947V44.3355H4.13984C1.85734 44.3353 0 46.1927 0 48.4756V51.1688C0 53.4517 1.85734 55.3091 4.14016 55.3091H6.05359L11.727 77.5172C11.8725 78.0927 12.3155 79.8438 14.3403 79.8438H65.6595C67.6706 79.8438 68.1223 78.0989 68.2719 77.5209L73.9463 55.3092H75.8598C78.1427 55.3092 80 53.4519 80 51.1689V48.4758C80 46.1927 78.1427 44.3353 75.8598 44.3353ZM68.0309 31.1505C67.6373 31.4803 67.137 31.6364 66.6195 31.5911C66.1028 31.5456 65.6367 31.3039 65.3078 30.9113L63.8528 29.1723C63.1677 28.357 63.2745 27.1353 64.0909 26.4486C64.4848 26.1191 64.9872 25.9623 65.5053 26.0091C66.0211 26.055 66.4852 26.2959 66.8144 26.6905L68.2706 28.4256C68.9558 29.2436 68.8483 30.4658 68.0309 31.1505ZM11.7237 28.4272L13.1819 26.6898C13.5112 26.2964 13.9773 26.0548 14.4939 26.0094C14.5527 26.0042 14.6111 26.0016 14.6692 26.0016C15.1231 26.0016 15.5567 26.1578 15.9055 26.45C16.2992 26.7797 16.5408 27.2469 16.5861 27.7652C16.6313 28.2819 16.4753 28.7817 16.1461 29.1734L14.6864 30.913C14.3597 31.3044 13.8955 31.5453 13.3797 31.5913C12.8609 31.6381 12.3586 31.4809 11.9661 31.1522C11.1506 30.4664 11.043 29.2427 11.7237 28.4272ZM39.9977 3.28125C45.0364 3.28125 49.1358 7.38094 49.1358 12.4202V13.5927C46.0089 13.3262 43.4313 12.3358 41.1194 11.4475C39.0447 10.6502 37.023 9.87328 35.0239 9.87328C33.655 9.87328 32.2966 10.2378 30.9392 11.2097C31.5334 6.74047 35.3692 3.28125 39.9977 3.28125ZM30.8597 19.0289V15.7227C33.643 11.9223 35.6858 12.7072 39.9984 14.3645C42.4553 15.3086 45.4412 16.4548 49.1358 16.7262V19.0291C49.1358 22.8677 43.1934 26.9278 39.9977 26.9278C36.802 26.9277 30.8597 22.8677 30.8597 19.0289ZM48.4567 29.402L44.1636 33.3617L42.3403 29.6933C43.7647 29.2905 45.2869 28.5656 46.7006 27.6053L48.4567 29.402ZM37.655 29.6931L35.8319 33.3616L31.5394 29.4025L33.2967 27.6064C34.71 28.5662 36.2314 29.2906 37.655 29.6931ZM29.027 31.3367L35.2445 37.0713C35.5356 37.3398 35.9148 37.4852 36.3039 37.4852C36.3981 37.4852 36.493 37.4766 36.5872 37.4592C37.0709 37.3702 37.4844 37.0584 37.7033 36.618L39.9978 32.0009L42.2925 36.618C42.5112 37.0584 42.9248 37.37 43.4086 37.4592C43.8928 37.5484 44.3895 37.4044 44.7512 37.0713L50.9688 31.3367C54.9998 33.4789 56.1402 36.3092 56.2602 44.3353H23.7358C23.8558 36.3092 24.9961 33.4789 29.027 31.3367ZM76.875 51.1688C76.875 51.7286 76.4197 52.1841 75.8598 52.1841H47.0089C46.1461 52.1841 45.4464 52.8838 45.4464 53.7466C45.4464 54.6094 46.1461 55.3091 47.0089 55.3091H70.7209L65.2516 76.7188L14.7484 76.7186L9.27891 55.3092H32.9733C33.8361 55.3092 34.5358 54.6095 34.5358 53.7467C34.5358 52.8839 33.8361 52.1842 32.9733 52.1842H4.14016C3.59 52.1842 3.125 51.7192 3.125 51.1689V48.4758C3.125 47.9255 3.59 47.4605 4.14016 47.4605H75.8598C76.41 47.4605 76.875 47.9255 76.875 48.4758V51.1688Z" fill="white"/>
<path d="M39.9933 55.3093H39.9977C40.8605 55.3093 41.558 54.6096 41.558 53.7468C41.558 52.884 40.8561 52.1843 39.9932 52.1843C39.1302 52.1843 38.4307 52.884 38.4307 53.7468C38.4307 54.6096 39.1305 55.3093 39.9933 55.3093Z" fill="white"/>
</g>
<defs>
<clipPath id="clip0_69_6">
<rect width="80" height="80" fill="white"/>
</clipPath>
</defs>
</svg>
