<svg width="80" height="80" viewBox="0 0 80 80" fill="none" xmlns="http://www.w3.org/2000/svg">
<g clip-path="url(#clip0_70_2)">
<path d="M80 33.5484H77.1006L72.7791 35.8222C72.2927 35.5538 71.7868 35.3264 71.2412 35.1896L65.8052 33.8294V33.2113C68.2101 31.5329 69.6774 28.7601 69.6774 25.8064V23.5509C69.6774 18.5383 65.7497 14.3435 60.9224 14.1973C60.6773 14.191 60.436 14.1998 60.1934 14.2118L61.6028 10.9123L54.77 4.0814L50.7422 6.703C49.2118 5.8411 47.5932 5.17011 45.9123 4.69947L44.9175 0H35.0838L34.089 4.70073C32.408 5.17137 30.7882 5.84236 29.2591 6.70426L25.2312 4.08266L18.4041 10.9098L19.7896 14.2118C19.7366 14.2093 19.6862 14.1998 19.6333 14.1986C17.1623 14.1268 14.8349 15.0284 13.067 16.7446C11.2966 18.4596 10.3226 20.7611 10.3226 23.2258V25.8064C10.3226 28.7601 11.7887 31.5316 14.1935 33.2101V33.8294L10.6477 34.7159L4.22064 30.9677H0V57.7048L12.6941 61.9355H15.1663L15.475 60.8543L19.3662 63.1899C19.4298 65.3056 21.1265 67.0079 23.2403 67.0823C23.3146 69.1872 25.0063 70.8789 27.1113 70.9532C27.1856 73.0582 28.8773 74.7499 30.9822 74.8242C31.0591 76.9783 32.8232 78.7097 34.995 78.7097C35.8014 78.7097 36.5921 78.4583 37.2568 78.0103L38.3997 79.0197C39.1161 79.6503 40.0384 80 40.9961 80H41.2349C43.3821 80 45.1292 78.2642 45.1562 76.124C47.2801 76.0969 49.0001 74.3769 49.0272 72.253C51.1523 72.2259 52.8736 70.5034 52.8982 68.3783C55.0428 68.3279 56.7742 66.5757 56.7742 64.4191C56.7742 64.2893 56.7679 64.1614 56.7547 64.0323L80 52.4105V33.5484ZM67.0968 23.5509V25.8064C67.0968 28.0966 65.8594 30.2363 63.8672 31.3899L63.222 31.7629L63.2271 35.8461L69.6736 37.4565L55.4839 44.925V41.4491C55.4839 39.7146 54.7833 38.1263 53.636 36.9525L58.0645 35.8461V31.7597L57.4206 31.3873C55.4297 30.2363 54.1935 28.0966 54.1935 25.8064V23.2258C54.1935 21.4661 54.8891 19.8204 56.1536 18.595C57.4168 17.3702 59.0927 16.7099 60.8449 16.778C64.2918 16.8813 67.0968 19.92 67.0968 23.5509ZM41.9456 43.9107L36.1045 42.0438C33.4425 41.1908 30.5614 41.0635 27.8364 41.6671L27.0968 41.8309V41.4491C27.0968 39.6699 28.3033 38.125 30.0284 37.6928L37.4194 35.8461V31.7597L36.7755 31.3873C34.7845 30.2363 33.5484 28.0966 33.5484 25.8064V23.2258C33.5484 21.4661 34.2439 19.8204 35.5084 18.595C36.7717 17.3702 38.4583 16.7099 40.1997 16.778C43.6467 16.8813 46.4516 19.92 46.4516 23.5509V25.8064C46.4516 28.0966 45.2142 30.2363 43.222 31.3899L42.5769 31.7629L42.5819 35.8461L49.9716 37.6928C51.6967 38.125 52.9032 39.6699 52.9032 41.4491V46.284L52.5844 46.4516H51.7937L43.8609 44.1847C43.2359 44.0077 42.592 43.9352 41.9456 43.9107ZM27.386 19.312C29.8091 14.6169 34.6862 11.6129 40 11.6129C45.2634 11.6129 50.1197 14.5766 52.5611 19.208C51.9468 20.4398 51.6129 21.8038 51.6129 23.2258V25.8064C51.6129 28.7601 53.079 31.5316 55.4839 33.2101V33.8294L50.3226 35.1216L45.16 33.8294V33.2113C47.5649 31.5329 49.0323 28.7601 49.0323 25.8064V23.5509C49.0323 18.5383 45.1046 14.3435 40.2772 14.1973C37.8075 14.1249 35.4788 15.0271 33.7109 16.7433C31.9418 18.4596 30.9677 20.7611 30.9677 23.2258V25.8064C30.9677 28.7601 32.4338 31.5316 34.8387 33.2101V33.8294L29.6774 35.1216L24.5149 33.8294V33.2113C26.9197 31.5329 28.3871 28.7601 28.3871 25.8064V23.5509C28.3871 22.0325 28.0217 20.591 27.386 19.312ZM21.4516 11.5083L25.574 7.38596L29.2024 9.74735L29.8967 9.32145C31.6362 8.25542 33.5163 7.4748 35.4839 7.00416L36.2777 6.81389L37.1755 2.58065H42.8257L43.721 6.81263L44.5149 7.00227C46.4825 7.47354 48.3625 8.25416 50.1021 9.32019L50.7964 9.74609L54.4248 7.3847L58.5421 11.5033L57.0785 14.9301C56.0824 15.3585 55.1588 15.9614 54.3548 16.7408C54.3019 16.7925 54.2565 16.8479 54.2049 16.9008C51.1649 12.0684 45.7907 9.03226 40 9.03226C34.1677 9.03226 28.7784 12.0968 25.746 16.9783C24.9345 16.129 23.9693 15.441 22.8994 14.9603L21.4516 11.5083ZM16.7742 35.8461V31.7597L16.1303 31.3873C14.1394 30.2363 12.9032 28.0966 12.9032 25.8064V23.2258C12.9032 21.4661 13.5988 19.8204 14.8633 18.595C16.1265 17.3702 17.8062 16.7099 19.5546 16.778C23.0015 16.8813 25.8064 19.92 25.8064 23.5509V25.8064C25.8064 28.0966 24.5691 30.2363 22.5769 31.3899L21.9317 31.7629L21.9367 35.8461L26.364 36.9525C25.2167 38.1263 24.5161 39.7146 24.5161 41.4491V42.4049L20.4914 43.2995L20.596 42.9341L20.6452 40.5494L13.8401 36.5795L16.7742 35.8461ZM2.58065 33.5484H3.5213L12.8012 38.9611L8.1187 57.6903L2.58065 55.8436V33.5484ZM13.1124 59.3548L10.5727 58.5087L15.1216 40.315L18.0645 42.0312V42.3998L13.2208 59.3548H13.1124ZM21.9355 63.0696C21.9355 62.689 22.0892 62.316 22.3589 62.0464L24.627 59.7782C24.8967 59.5086 25.2697 59.3548 25.6502 59.3548C26.4478 59.3548 27.0968 60.0038 27.0968 60.8014C27.0968 61.182 26.943 61.5549 26.6734 61.8246L24.4052 64.0927C24.1356 64.3624 23.7626 64.5161 23.3821 64.5161C22.5844 64.5161 21.9355 63.8672 21.9355 63.0696ZM25.8064 66.9405C25.8064 66.56 25.9602 66.187 26.2298 65.9173L28.498 63.6492C28.7676 63.3795 29.1406 63.2258 29.5212 63.2258C30.3188 63.2258 30.9677 63.8747 30.9677 64.6724C30.9677 65.0529 30.814 65.4259 30.5444 65.6956L28.2762 67.9637C28.0066 68.2334 27.6336 68.3871 27.253 68.3871C26.4554 68.3871 25.8064 67.7382 25.8064 66.9405ZM29.6774 70.8115C29.6774 70.4309 29.8311 70.058 30.1008 69.7883L32.3689 67.5202C32.6386 67.2505 33.0116 67.0968 33.3921 67.0968C34.1898 67.0968 34.8387 67.7457 34.8387 68.5433C34.8387 68.9239 34.685 69.2969 34.4153 69.5665L32.1472 71.8347C31.8775 72.1043 31.5045 72.2581 31.124 72.2581C30.3264 72.2581 29.6774 71.6091 29.6774 70.8115ZM34.995 76.129C34.1973 76.129 33.5484 75.4801 33.5484 74.6825C33.5484 74.3019 33.7021 73.9289 33.9718 73.6593L36.2399 71.3911C36.5096 71.1215 36.8826 70.9677 37.2631 70.9677C38.0607 70.9677 38.7097 71.6167 38.7097 72.4143C38.7097 72.7949 38.5559 73.1678 38.2863 73.4375L36.0181 75.7056C35.7485 75.9753 35.3755 76.129 34.995 76.129ZM41.2349 77.4193H40.9961C40.6672 77.4193 40.3522 77.2996 40.1071 77.0823L39.1419 76.2311L40.1109 75.2621C40.4568 74.9162 40.7252 74.5048 40.9236 74.0631L42.0968 75.0397C42.4036 75.2955 42.5806 75.6722 42.5806 76.0736C42.5806 76.8158 41.9771 77.4193 41.2349 77.4193ZM52.8062 65.8064H52.5832C52.2593 65.8064 51.943 65.6918 51.6954 65.4839L44.6982 59.6528L43.045 61.6362L49.84 67.2978C50.1455 67.5536 50.3226 67.9303 50.3226 68.3316C50.3226 69.0738 49.719 69.6774 48.9768 69.6774H48.6952C48.3821 69.6774 48.0759 69.5665 47.8345 69.3649L40.826 63.5251L39.1728 65.5084L45.9677 71.1706C46.2746 71.4245 46.4516 71.8013 46.4516 72.2026C46.4516 72.9448 45.848 73.5484 45.1058 73.5484C44.6106 73.5484 44.128 73.3726 43.7481 73.057L40.8682 70.6565C40.2337 69.3599 38.9302 68.4558 37.4036 68.4016C37.3293 66.2966 35.6376 64.605 33.5326 64.5306C33.4583 62.4257 31.7666 60.734 29.6617 60.6596C29.5861 58.5055 27.8219 56.7742 25.6502 56.7742C24.5898 56.7742 23.5522 57.2039 22.8024 57.9536L20.5343 60.2218C20.3988 60.3572 20.2867 60.511 20.1726 60.6634L16.209 58.285L19.6837 46.124L28.3947 44.1872C30.6798 43.6763 33.0891 43.7872 35.3175 44.5004L37.2184 45.1084L30.7743 48.3304C29.3019 49.0682 28.3871 50.5494 28.3871 52.1963V52.4515C28.3871 54.8349 30.3264 56.7742 32.7098 56.7742C33.4929 56.7742 34.2635 56.5612 34.9332 56.1574L39.7379 53.2762C40.7031 52.6978 41.9985 52.8245 42.832 53.5742L53.7342 63.3858C54.026 63.6505 54.1935 64.026 54.1935 64.4191C54.1935 65.1846 53.5717 65.8064 52.8062 65.8064ZM77.4193 50.8153L55.6811 61.6854C55.6105 61.6104 55.5368 61.5392 55.4593 61.4699L44.559 51.6583C43.6038 50.7964 42.3689 50.3226 41.0824 50.3226C40.1418 50.3226 39.2181 50.5784 38.4091 51.0635L33.6026 53.9459C33.3329 54.1085 33.0248 54.1935 32.7098 54.1935C31.7484 54.1935 30.9677 53.4129 30.9677 52.4515V52.1963C30.9677 51.5316 31.3369 50.9356 31.9304 50.6389L39.128 47.0401C40.3598 46.4233 41.8221 46.2853 43.1496 46.6671L51.2582 48.9831L53.222 49.0323L77.4193 36.2966V50.8153Z" fill="white"/>
</g>
<defs>
<clipPath id="clip0_70_2">
<rect width="80" height="80" fill="white"/>
</clipPath>
</defs>
</svg>
